<svg width="68" height="61" viewBox="0 0 68 61" fill="none" xmlns="http://www.w3.org/2000/svg">
<rect x="0.0234375" y="0.432617" width="67.9085" height="60.4812" rx="7.62259" fill="black"/>
<path d="M38.2669 37.6761H41.2945V25.1222H38.2669V37.6761ZM32.9326 34.1047C32.9326 34.5527 32.5696 34.9157 32.1222 34.9157H30.3613C29.912 34.9157 29.5496 34.5527 29.5496 34.1047V29.0394H26.5227V34.3573C26.5227 36.5307 27.913 37.6761 29.9691 37.6761H32.9326V37.6602C34.8262 37.6602 35.9602 36.313 35.9602 34.3573V29.0394H32.9326V34.1047ZM50.0079 29.0394V34.1047C50.0079 34.5527 49.645 34.9157 49.1975 34.9157H47.4366C46.9879 34.9157 46.6256 34.5527 46.6256 34.1047V29.0394H43.598V34.3573C43.598 36.5307 44.9883 37.6761 47.0444 37.6761H50.0079V37.6602C51.9015 37.6602 53.0348 36.313 53.0348 34.3573V29.0394H50.0079ZM20.9129 29.0394H18.9717C18.2902 29.0394 17.9488 29.223 17.9488 29.223V25.1221H14.9219V37.676H17.9488V32.6101C17.9488 32.1621 18.3118 31.7991 18.7598 31.7991H20.5214C20.9694 31.7991 21.3318 32.1621 21.3318 32.6101V37.676H24.3594V32.218C24.3594 29.9227 22.8288 29.0394 20.9129 29.0394Z" fill="#1ABE30"/>
</svg>
